<svg width="20" height="20" viewBox="0 0 20 20" fill="none" xmlns="http://www.w3.org/2000/svg">
    <path d="M17.9272 12.9688C17.9272 12.3242 17.4329 11.7969 16.8286 11.7969C17.4329 11.7969 17.9272 11.2695 17.9272 10.625C17.9272 9.98047 17.4329 9.45312 16.8286 9.45312H12.3243C12.9944 7.30855 12.9834 6.58594 12.9834 5.27344C12.9834 4.51168 12.522 3.85543 11.8848 3.62113C11.709 3.55082 11.5332 3.51562 11.3354 3.51562H11.0059C10.7971 3.51562 10.5334 3.69145 10.4785 3.96094L10.1709 5.23824C9.70951 7.1484 8.22628 9.45312 6.3916 9.45312V17.6562L8.84152 18.5234C9.40182 18.7226 9.98413 18.8281 10.5774 18.8281H15.73C16.3368 18.8281 16.8286 18.3034 16.8286 17.6562C16.8286 17.009 16.3368 16.4844 15.73 16.4844H16.8286C17.4329 16.4844 17.9272 15.957 17.9272 15.3125C17.9272 14.668 17.4329 14.1406 16.8286 14.1406C17.4329 14.1406 17.9272 13.6133 17.9272 12.9688Z" fill="#FEDBAB"/>
    <path d="M15.73 18.8281C16.3368 18.8281 16.8286 18.3034 16.8286 17.6562C16.8286 17.009 16.3368 16.4844 15.73 16.4844H16.8286C17.4329 16.4844 17.9272 15.957 17.9272 15.3125C17.9272 14.668 17.4329 14.1406 16.8286 14.1406C17.4329 14.1406 17.9272 13.6133 17.9272 12.9688C17.9272 12.3242 17.4329 11.7969 16.8286 11.7969C17.4329 11.7969 17.9272 11.2695 17.9272 10.625C17.9272 9.98047 17.4329 9.45312 16.8286 9.45312H12.3243C12.9944 7.30855 12.9834 6.58594 12.9834 5.27344C12.9834 4.51168 12.522 3.85543 11.8848 3.62113C11.709 3.55082 11.5332 3.51562 11.3354 3.51562V18.8281H15.73Z" fill="#FEC478"/>
    <path d="M5.29297 20H1.99707C1.69344 20 1.44775 19.7379 1.44775 19.4141V8.86719C1.44775 8.54332 1.69344 8.28125 1.99707 8.28125H5.29297C6.20168 8.28125 6.94092 9.06977 6.94092 10.0391V18.2422C6.94092 19.2115 6.20168 20 5.29297 20Z" fill="#0047F5"/>
    <path d="M4.19434 17.6562C4.49771 17.6562 4.74365 17.3939 4.74365 17.0703C4.74365 16.7467 4.49771 16.4844 4.19434 16.4844C3.89096 16.4844 3.64502 16.7467 3.64502 17.0703C3.64502 17.3939 3.89096 17.6562 4.19434 17.6562Z" fill="#0047F5"/>
    <path d="M11.8848 0.585938V1.75781C11.8848 2.08598 11.6431 2.34375 11.3354 2.34375C11.0278 2.34375 10.7861 2.08598 10.7861 1.75781V0.585938C10.7861 0.257773 11.0278 0 11.3354 0C11.6431 0 11.8848 0.257773 11.8848 0.585938Z" fill="#0047F5"/>
    <path d="M8.22785 3.37319L7.45108 2.54464C7.23652 2.31577 7.23652 1.94495 7.45108 1.71608C7.66565 1.48722 8.01329 1.48722 8.22785 1.71608L9.00463 2.54464C9.21919 2.7735 9.21919 3.14432 9.00463 3.37319C8.79003 3.60206 8.44242 3.60206 8.22785 3.37319Z" fill="#0047F5"/>
    <path d="M13.6663 3.37319C13.4517 3.14432 13.4517 2.7735 13.6663 2.54464L14.4431 1.71608C14.6576 1.48722 15.0053 1.48722 15.2198 1.71608C15.4344 1.94495 15.4344 2.31577 15.2198 2.54464L14.4431 3.37319C14.2285 3.60206 13.8809 3.60206 13.6663 3.37319Z" fill="#0047F5"/>
    <path d="M11.8848 0.585938V1.75781C11.8848 2.08598 11.6431 2.34375 11.3354 2.34375V0C11.6431 0 11.8848 0.257773 11.8848 0.585938Z" fill="#0047F5"/>
</svg>
