<svg width="91" height="36" viewBox="0 0 91 36" fill="none" xmlns="http://www.w3.org/2000/svg">
    <path fill-rule="evenodd" clip-rule="evenodd" d="M8.99834 17.7661C8.99834 15.2813 6.984 13.2669 4.49917 13.2669C2.01435 13.2669 0 15.2813 0 17.7661C0 20.2509 2.01435 22.2653 4.49917 22.2653C6.984 22.2653 8.99834 20.2509 8.99834 17.7661Z" fill="white"/>
    <path fill-rule="evenodd" clip-rule="evenodd" d="M22.2652 4.49924C22.2652 2.01442 20.2508 6.95718e-05 17.766 6.95718e-05C15.2812 6.95718e-05 13.2668 2.01442 13.2668 4.49924C13.2668 6.98407 15.2812 8.99841 17.766 8.99841C20.2508 8.99841 22.2652 6.98407 22.2652 4.49924Z" fill="white"/>
    <path fill-rule="evenodd" clip-rule="evenodd" d="M35.532 17.7661C35.532 15.2813 33.5177 13.2669 31.0329 13.2669C28.548 13.2669 26.5337 15.2813 26.5337 17.7661C26.5337 20.2509 28.548 22.2653 31.0329 22.2653C33.5177 22.2653 35.532 20.2509 35.532 17.7661Z" fill="white"/>
    <path fill-rule="evenodd" clip-rule="evenodd" d="M22.2652 31.0327C22.2652 28.5479 20.2508 26.5335 17.766 26.5335C15.2812 26.5335 13.2668 28.5479 13.2668 31.0327C13.2668 33.5175 15.2812 35.5319 17.766 35.5319C20.2508 35.5319 22.2652 33.5175 22.2652 31.0327Z" fill="white"/>
    <path fill-rule="evenodd" clip-rule="evenodd" d="M70.1284 22.6458C68.591 25.0621 65.6592 26.3413 62.6202 26.3413C57.6148 26.3413 53.825 22.859 53.825 17.6712C53.825 12.3768 57.8293 9.03674 62.5845 9.03674C67.3754 9.03674 71.1295 12.3413 71.1295 17.5291C71.1295 17.991 71.0937 18.524 71.0222 19.1281H58.1153C58.5801 21.4377 60.3678 22.6103 62.8347 22.6103C64.6581 22.6103 66.3743 21.8996 67.3754 20.5494L70.1284 22.6458ZM58.0551 16.2627H67.0919C66.8368 13.9732 65.0513 12.6497 62.6828 12.6497C60.3871 12.6497 58.5652 13.7228 58.0551 16.2627Z" fill="white"/>
    <path d="M46.5261 34.609C51.0598 34.609 53.0672 31.7182 53.0672 27.0788V8.84448H49.0525V27.0788C49.0871 28.9703 48.4988 30.7547 46.3876 30.7547H44.4149V34.609H46.5261Z" fill="white"/>
    <path d="M50.9383 4.42225C52.1148 4.42225 53.0673 3.4988 53.0673 2.30726C53.0673 1.08592 52.1148 0.192261 50.9383 0.192261C49.7897 0.192261 48.8373 1.08592 48.8373 2.30726C48.8373 3.4988 49.7897 4.42225 50.9383 4.42225Z" fill="white"/>
    <path d="M77.1416 26.3413V12.236L79.6007 12.2163V8.97132L77.1416 8.91834V7.45573C77.1058 5.42235 77.93 3.85272 80.7612 3.85272H81.908V0H79.9369C75.278 0 72.9844 2.88954 72.9844 7.66977V8.91834H70.91V12.2163L72.9844 12.236V26.3413H77.1416Z" fill="white"/>
    <path d="M86.2336 26.3413V12.236L88.6928 12.2163V8.97132L86.2336 8.91834V7.45573C86.1978 5.42235 87.0221 3.85272 89.8532 3.85272H91.0001V0H89.029C84.3701 0 82.0765 2.88954 82.0765 7.66977V8.91834H80.0021V12.2163L82.0765 12.236V26.3413H86.2336Z" fill="white"/>
</svg>
