<svg width="15" height="14" viewBox="0 0 15 14" fill="none" xmlns="http://www.w3.org/2000/svg">
    <path d="M14.2513 4.93276L14.2516 4.93278C14.3812 4.94367 14.4639 5.02196 14.4896 5.09613L14.9618 4.93235L14.4898 5.0967C14.5137 5.16528 14.4975 5.24966 14.4182 5.31429L14.4178 5.31463L11.23 7.92007L10.986 8.11943L11.0606 8.42553L12.0005 12.2849C12.0173 12.3538 11.9939 12.4395 11.9045 12.4999L11.9045 12.5C11.8097 12.564 11.6772 12.57 11.5753 12.5128L11.5742 12.5122L7.93761 10.4856L7.69426 10.3499L7.45088 10.4855L3.81297 12.5122L3.81275 12.5123C3.76544 12.5387 3.71245 12.5522 3.6582 12.5522C3.59458 12.5522 3.53354 12.5338 3.48274 12.4996C3.39425 12.44 3.37035 12.3546 3.38725 12.2848C3.38726 12.2847 3.38726 12.2847 3.38727 12.2847L4.32716 8.42553L4.4017 8.11947L4.15782 7.9201L0.969965 5.31414L0.969 5.31335C0.891161 5.25004 0.874477 5.1659 0.898518 5.09698C0.924681 5.02198 1.0074 4.94399 1.13694 4.93272C1.13704 4.93271 1.13714 4.9327 1.13724 4.93269L5.35454 4.57581L5.64529 4.55121L5.76689 4.28596L7.43428 0.648853C7.43432 0.648784 7.43435 0.648714 7.43438 0.648644C7.47005 0.571356 7.56425 0.5 7.69421 0.5C7.82424 0.5 7.91851 0.571426 7.95415 0.648242C7.95421 0.648372 7.95427 0.648503 7.95433 0.648633L9.62152 4.28593L9.7431 4.5512L10.0339 4.57581L14.2513 4.93276ZM14.7342 5.70177C14.9687 5.51057 15.0582 5.20859 14.962 4.93229L11.5464 8.30721L14.7342 5.70177Z" fill="white" stroke="#FFC107"/>
</svg>
