<svg width="15" height="14" viewBox="0 0 15 14" fill="none" xmlns="http://www.w3.org/2000/svg">
    <path d="M14.5738 4.93229C14.4782 4.6565 14.2157 4.46062 13.9053 4.43454L9.68786 4.07759L8.02019 0.439245C7.89722 0.172601 7.61718 0 7.30603 0C6.99488 0 6.71484 0.172601 6.59187 0.439869L4.9242 4.07759L0.706131 4.43454C0.396208 4.46124 0.134447 4.6565 0.0382368 4.93229C-0.0579729 5.20808 0.0308789 5.51057 0.265327 5.70125L3.45318 8.30721L2.51316 12.1669C2.44437 12.4507 2.56254 12.744 2.81516 12.9142C2.95095 13.0057 3.10981 13.0522 3.27001 13.0522C3.40814 13.0522 3.54515 13.0175 3.66812 12.949L7.30603 10.9223L10.9426 12.949C11.2087 13.0982 11.5442 13.0846 11.7962 12.9142C12.049 12.7435 12.167 12.4501 12.0982 12.1669L11.1582 8.30721L14.3461 5.70177C14.5805 5.51057 14.67 5.20859 14.5738 4.93229Z" fill="#FFC107"/>
</svg>
