<svg width="18" height="18" viewBox="0 0 18 18" fill="none" xmlns="http://www.w3.org/2000/svg">
    <g clip-path="url(#clip0_1176_4840)">
        <path d="M1.19002 18H0.744385C0.471353 18 0.25 17.7639 0.25 17.4727V16.9973C0.25 15.7251 0.554508 14.4636 1.13057 13.3492C1.70458 12.2388 2.53867 11.2922 3.5427 10.6119C3.73815 10.4794 3.99365 10.5094 4.15735 10.6842L7.10857 13.8322C7.27231 14.0068 7.30045 14.2793 7.1763 14.4878C6.53848 15.5588 5.65109 16.4485 4.61008 17.0607C3.56531 17.6752 2.38268 18 1.19002 18Z" fill="#FFE137"/>
        <path d="M0.744371 18H1.19001C2.38266 18 3.5653 17.6752 4.6101 17.0607C5.65111 16.4485 6.53849 15.5588 7.17631 14.4878C7.3005 14.2793 7.27236 14.0068 7.10858 13.8322L5.63298 12.2582L0.394775 17.8455C0.484259 17.941 0.607855 18 0.744371 18Z" fill="#FFC808"/>
        <path d="M10.877 17.1357C10.8506 17.1357 10.8241 17.1335 10.7978 17.129C10.6409 17.1018 10.5059 16.9959 10.4348 16.8442L8.98144 13.7439C8.87429 13.5153 8.93622 13.2377 9.12837 13.0851L13.4238 9.67347C13.5682 9.55876 13.7596 9.53689 13.9235 9.61634C14.0875 9.6958 14.1979 9.86399 14.2119 10.0554C14.3731 12.2612 13.6248 14.4232 12.1587 15.9869L11.2265 16.9813C11.1331 17.0809 11.007 17.1357 10.877 17.1357Z" fill="#FB4021"/>
        <path d="M4.46104 8.74225C4.38632 8.74225 4.31078 8.72418 4.24018 8.68653L1.33359 7.13631C1.19144 7.06052 1.09213 6.91645 1.06669 6.7491C1.04124 6.5818 1.09273 6.4116 1.20512 6.29176L2.13736 5.2974C3.60338 3.73361 5.63035 2.93557 7.6981 3.1073C7.8776 3.12225 8.03531 3.24005 8.10979 3.41492C8.18428 3.58979 8.16375 3.79398 8.05623 3.948L4.85783 8.52977C4.76189 8.66726 4.61321 8.74225 4.46104 8.74225Z" fill="#FF6641"/>
        <path d="M16.5209 5.78257C15.2593 5.7093 14.0755 5.14733 13.1874 4.20015C12.2995 3.25297 11.7726 1.99019 11.7039 0.644478L11.695 0.468872C10.0617 0.990802 8.54908 1.93847 7.30834 3.26193L7.28385 3.28809C5.36504 5.33482 3.90898 7.74678 2.95617 10.457C2.88811 10.6507 2.93241 10.8689 3.06948 11.0151L6.79837 14.9926C6.89276 15.0933 7.01919 15.147 7.14803 15.147C7.20627 15.147 7.26503 15.136 7.32152 15.1135C9.86237 14.0971 12.1236 12.544 14.0424 10.4973L14.067 10.471C15.3077 9.14762 16.1961 7.53426 16.6854 5.79213L16.5209 5.78257Z" fill="#E6F3FF"/>
        <path d="M6.79842 14.9926C6.89281 15.0933 7.01924 15.1471 7.14808 15.1471C7.20632 15.1471 7.26508 15.1361 7.32158 15.1135C9.86242 14.0972 12.1236 12.5441 14.0425 10.4973L14.0671 10.4711C15.3078 9.14766 16.1962 7.53431 16.6855 5.79218L16.5209 5.78261C15.2593 5.70935 14.0754 5.14738 13.1874 4.2002L4.93396 13.0038L6.79842 14.9926Z" fill="#D2DCF0"/>
        <path d="M16.9567 0.60413C16.9198 0.388059 16.7613 0.218923 16.5587 0.179653C14.7939 -0.162663 13.0051 -0.0094171 11.3534 0.58497L11.3744 0.995981C11.4431 2.34166 11.9699 3.60443 12.8579 4.55165C13.7459 5.49879 14.9297 6.0608 16.1913 6.13407L16.5767 6.15646C17.1339 4.39471 17.2775 2.48661 16.9567 0.60413Z" fill="#FF6641"/>
        <path d="M12.8578 4.55162C13.7458 5.49877 14.9296 6.06077 16.1912 6.13404L16.5766 6.15643C17.1338 4.39469 17.2774 2.48662 16.9566 0.604104C16.9382 0.496069 16.8893 0.399741 16.8197 0.325562L12.8578 4.55162Z" fill="#FB4021"/>
        <path d="M10.6438 9.19849C10.0716 9.19849 9.53358 8.96079 9.12897 8.52918C8.72433 8.0976 8.50146 7.52371 8.50146 6.91333C8.50146 6.30295 8.7243 5.72906 9.12897 5.29748C9.53358 4.86587 10.0716 4.62817 10.6438 4.62817C11.2161 4.62817 11.7541 4.86587 12.1587 5.29748C12.5633 5.72906 12.7862 6.30295 12.7862 6.91333C12.7862 7.52371 12.5633 8.0976 12.1587 8.52918C11.7541 8.96079 11.2161 9.19849 10.6438 9.19849Z" fill="#FF6641"/>
        <path d="M3.88524 14.6498C3.75871 14.6498 3.63218 14.5983 3.53567 14.4953C3.3426 14.2894 3.3426 13.9555 3.53567 13.7496L7.73063 9.27492C7.92367 9.06901 8.23672 9.06901 8.42979 9.27492C8.62287 9.48083 8.62287 9.81474 8.42979 10.0207L4.2348 14.4953C4.13826 14.5983 4.01173 14.6498 3.88524 14.6498Z" fill="#FF6641"/>
        <path d="M9.12903 8.52919C9.53363 8.9608 10.0717 9.19849 10.6439 9.19849C11.2161 9.19849 11.7541 8.9608 12.1588 8.52919C12.5634 8.09761 12.7862 7.52372 12.7862 6.91334C12.7862 6.30295 12.5634 5.72906 12.1588 5.29749L9.12903 8.52919Z" fill="#FB4021"/>
        <path d="M3.53564 14.4954C3.63218 14.5984 3.75871 14.6499 3.88521 14.6499C4.0117 14.6499 4.13827 14.5984 4.23477 14.4954L8.42976 10.0208C8.62284 9.81488 8.62284 9.48097 8.42976 9.27502C8.42976 9.27502 8.42976 9.27502 8.42973 9.27502L3.53564 14.4954Z" fill="#FB4021"/>
        <path d="M10.6438 8.1438C10.3357 8.1438 10.046 8.01583 9.82813 7.78341C9.61024 7.55103 9.49023 7.24201 9.49023 6.91333C9.49023 6.58465 9.61024 6.27567 9.82813 6.04325C10.046 5.81083 10.3357 5.68286 10.6438 5.68286C10.952 5.68286 11.2416 5.81083 11.4595 6.04325C11.6774 6.27563 11.7974 6.58465 11.7974 6.91333C11.7974 7.24201 11.6774 7.55099 11.4595 7.78341C11.2416 8.01583 10.9519 8.1438 10.6438 8.1438Z" fill="#84D6FF"/>
        <path d="M9.82812 7.78338C10.046 8.0158 10.3357 8.14376 10.6438 8.14376C10.952 8.14376 11.2416 8.0158 11.4595 7.78338C11.6774 7.55099 11.7974 7.24197 11.7974 6.91329C11.7974 6.58462 11.6774 6.27563 11.4595 6.04321L9.82812 7.78338Z" fill="#37C3FF"/>
    </g>
    <defs>
        <clipPath id="clip0_1176_4840">
            <rect width="16.875" height="18" fill="white" transform="translate(0.25)"/>
        </clipPath>
    </defs>
</svg>
