<svg width="17" height="16" viewBox="0 0 17 16" fill="none" xmlns="http://www.w3.org/2000/svg">
    <path d="M10.5625 2.94956H8.375V0.3125H10.5625V2.94956Z" fill="#F6F6F6"/>
    <path d="M9.46875 0.3125H10.5625V2.94956H9.46875V0.3125Z" fill="#E2DFF4"/>
    <path d="M12.8538 3.32715L13.93 1.79152L14.6978 2.32965L13.6216 3.86527L12.8538 3.32715Z" fill="#E2DFF4"/>
    <path d="M9.46875 1.9375C5.59169 1.9375 2.4375 5.09169 2.4375 8.96875C2.4375 12.8458 5.59169 16 9.46875 16C13.3458 16 16.5 12.8458 16.5 8.96875C16.5 5.09172 13.3458 1.9375 9.46875 1.9375Z" fill="#5082FF"/>
    <path d="M9.46875 1.9375V16C13.3458 16 16.5 12.8458 16.5 8.96875C16.5 5.09172 13.3458 1.9375 9.46875 1.9375Z" fill="#0047F5"/>
    <path d="M9.46875 14.125C6.62559 14.125 4.3125 11.8119 4.3125 8.96875C4.3125 6.12559 6.62559 3.8125 9.46875 3.8125C12.3119 3.8125 14.625 6.12559 14.625 8.96875C14.625 11.8119 12.3119 14.125 9.46875 14.125Z" fill="#F6F6F6"/>
    <path d="M9.46875 3.8125V14.125C12.3119 14.125 14.625 11.8119 14.625 8.96875C14.625 6.12559 12.3119 3.8125 9.46875 3.8125Z" fill="#E2DFF4"/>
    <path d="M9.46875 5.6875C9.72763 5.6875 9.9375 5.47763 9.9375 5.21875C9.9375 4.95987 9.72763 4.75 9.46875 4.75C9.20987 4.75 9 4.95987 9 5.21875C9 5.47763 9.20987 5.6875 9.46875 5.6875Z" fill="#51489A"/>
    <path d="M9.46875 13.1875C9.72763 13.1875 9.9375 12.9776 9.9375 12.7188C9.9375 12.4599 9.72763 12.25 9.46875 12.25C9.20987 12.25 9 12.4599 9 12.7188C9 12.9776 9.20987 13.1875 9.46875 13.1875Z" fill="#51489A"/>
    <path d="M6.81714 6.78589C7.07602 6.78589 7.28589 6.57602 7.28589 6.31714C7.28589 6.05826 7.07602 5.84839 6.81714 5.84839C6.55826 5.84839 6.34839 6.05826 6.34839 6.31714C6.34839 6.57602 6.55826 6.78589 6.81714 6.78589Z" fill="#51489A"/>
    <path d="M12.1204 12.0891C12.3792 12.0891 12.5891 11.8792 12.5891 11.6204C12.5891 11.3615 12.3792 11.1516 12.1204 11.1516C11.8615 11.1516 11.6516 11.3615 11.6516 11.6204C11.6516 11.8792 11.8615 12.0891 12.1204 12.0891Z" fill="#39326C"/>
    <path d="M5.71875 9.4375C5.97763 9.4375 6.1875 9.22763 6.1875 8.96875C6.1875 8.70987 5.97763 8.5 5.71875 8.5C5.45987 8.5 5.25 8.70987 5.25 8.96875C5.25 9.22763 5.45987 9.4375 5.71875 9.4375Z" fill="#51489A"/>
    <path d="M13.2188 9.4375C13.4776 9.4375 13.6875 9.22763 13.6875 8.96875C13.6875 8.70987 13.4776 8.5 13.2188 8.5C12.9599 8.5 12.75 8.70987 12.75 8.96875C12.75 9.22763 12.9599 9.4375 13.2188 9.4375Z" fill="#39326C"/>
    <path d="M6.81714 12.0891C7.07602 12.0891 7.28589 11.8792 7.28589 11.6204C7.28589 11.3615 7.07602 11.1516 6.81714 11.1516C6.55826 11.1516 6.34839 11.3615 6.34839 11.6204C6.34839 11.8792 6.55826 12.0891 6.81714 12.0891Z" fill="#51489A"/>
    <path d="M12.1204 6.78589C12.3792 6.78589 12.5891 6.57602 12.5891 6.31714C12.5891 6.05826 12.3792 5.84839 12.1204 5.84839C11.8615 5.84839 11.6516 6.05826 11.6516 6.31714C11.6516 6.57602 11.8615 6.78589 12.1204 6.78589Z" fill="#39326C"/>
    <path d="M11.3438 9.4375H9.46875C9.20987 9.4375 9 9.22762 9 8.96875V7.09375C9 6.83487 9.20987 6.625 9.46875 6.625C9.72763 6.625 9.9375 6.83487 9.9375 7.09375V8.5H11.3438C11.6026 8.5 11.8125 8.70988 11.8125 8.96875C11.8125 9.22762 11.6026 9.4375 11.3438 9.4375Z" fill="#51489A"/>
    <path d="M11.0312 0.9375H7.90625C7.64737 0.9375 7.4375 0.727625 7.4375 0.46875C7.4375 0.209875 7.64737 0 7.90625 0H11.0312C11.2901 0 11.5 0.209875 11.5 0.46875C11.5 0.727625 11.2901 0.9375 11.0312 0.9375Z" fill="#51489A"/>
    <path d="M14.8074 2.97886L13.2715 1.90343C13.0594 1.75493 13.0079 1.46265 13.1563 1.25058C13.3048 1.03852 13.5971 0.98699 13.8092 1.13546L15.3451 2.2109C15.5571 2.3594 15.6087 2.65168 15.4602 2.86374C15.3117 3.07583 15.0194 3.12736 14.8074 2.97886Z" fill="#39326C"/>
    <path d="M11.0312 0.9375C11.2901 0.9375 11.5 0.727625 11.5 0.46875C11.5 0.209875 11.2901 0 11.0312 0H9.46875V0.9375H11.0312Z" fill="#39326C"/>
    <path d="M9.9375 5.21875C9.9375 4.95987 9.72763 4.75 9.46875 4.75V5.6875C9.72763 5.6875 9.9375 5.47763 9.9375 5.21875Z" fill="#39326C"/>
    <path d="M9.9375 12.7188C9.9375 12.4599 9.72763 12.25 9.46875 12.25V13.1875C9.72763 13.1875 9.9375 12.9776 9.9375 12.7188Z" fill="#39326C"/>
    <path d="M11.3438 8.5H9.9375V7.09375C9.9375 6.83487 9.72763 6.625 9.46875 6.625V9.4375H11.3438C11.6026 9.4375 11.8125 9.22762 11.8125 8.96875C11.8125 8.70988 11.6026 8.5 11.3438 8.5Z" fill="#39326C"/>
    <path d="M2.90625 9.4375H1.59375C1.33487 9.4375 1.125 9.22763 1.125 8.96875C1.125 8.70987 1.33487 8.5 1.59375 8.5H2.90625C3.16512 8.5 3.375 8.70987 3.375 8.96875C3.375 9.22763 3.16512 9.4375 2.90625 9.4375Z" fill="#51489A"/>
    <path d="M3.18163 7.5625H0.96875C0.709875 7.5625 0.5 7.35263 0.5 7.09375C0.5 6.83487 0.709875 6.625 0.96875 6.625H3.18163C3.4405 6.625 3.65038 6.83487 3.65038 7.09375C3.65038 7.35263 3.4405 7.5625 3.18163 7.5625Z" fill="#51489A"/>
    <path d="M3.18163 11.3125H0.96875C0.709875 11.3125 0.5 11.1026 0.5 10.8438C0.5 10.5849 0.709875 10.375 0.96875 10.375H3.18163C3.4405 10.375 3.65038 10.5849 3.65038 10.8438C3.65038 11.1026 3.4405 11.3125 3.18163 11.3125Z" fill="#51489A"/>
</svg>
